<svg id="Layer_1" data-name="Layer 1" xmlns="http://www.w3.org/2000/svg" viewBox="0 0 344.4 184.25"><defs><style>.cls-1{fill:#fff;}</style></defs><title>THF-3 logo</title><circle class="cls-1" cx="74.24" cy="146.12" r="16.83"/><circle class="cls-1" cx="147.1" cy="38.09" r="16.83"/><path class="cls-1" d="M141.26,85.57a31.27,31.27,0,0,0-24.19-24A30.86,30.86,0,0,0,95.19,65.2h0a16.3,16.3,0,0,1-1.56.79l-.62.28a15.44,15.44,0,0,1-9.75.74c-5.68-1.81-9.34-7.69-10-13.83v0A16.84,16.84,0,1,0,62,71.61l0,0c10-3.6,18.78,5.08,18.14,14,0,.12,0,.25,0,.37a13.46,13.46,0,0,1-.23,1.53l0-.06a29,29,0,0,0-.41,4.69A31.1,31.1,0,0,0,83,106.47h0l.28.54a.83.83,0,0,1,.07.13l22.53,42.92a5.54,5.54,0,0,0,9.81,0l22.54-42.93.06-.11.28-.55h0A31.2,31.2,0,0,0,141.26,85.57Zm-30.53,23.37a16.83,16.83,0,1,1,16.83-16.83A16.83,16.83,0,0,1,110.73,108.94Z"/><path class="cls-1" d="M196.21,143.5a1.75,1.75,0,0,1-.53,1.37,2,2,0,0,1-1.4.5h-5.43A1.65,1.65,0,0,1,187,143.5V96.35a2,2,0,0,1,.49-1.39,1.78,1.78,0,0,1,1.38-.54h5.43a2,2,0,0,1,1.28.53,1.72,1.72,0,0,1,.65,1.4Z"/><path class="cls-1" d="M234.68,144.18a3.34,3.34,0,0,1,.2-.51c.09-.18.2-.38.31-.61l10.38-15.17-9.84-13.54a3.38,3.38,0,0,1-.44-.73,1.88,1.88,0,0,1-.17-.73.79.79,0,0,1,.27-.61,1.58,1.58,0,0,1,1-.24h8.28a1,1,0,0,1,.76.38,10,10,0,0,1,.73,1v-.06l5.06,7.6c.34-.48.72-1,1.13-1.7s.85-1.34,1.28-2,.85-1.41,1.27-2.09l1.1-1.76a4,4,0,0,1,.83-1,1.44,1.44,0,0,1,.9-.31h8.35a1.36,1.36,0,0,1,.8.26.82.82,0,0,1,.35.7,1.1,1.1,0,0,1-.34.77l-10.21,14,9.71,14.12c.43.59.78,1.11,1.06,1.56a2.26,2.26,0,0,1,.43,1.15q0,.72-1.26.72h-9.06a1.61,1.61,0,0,1-1.05-.36,2.54,2.54,0,0,1-.71-1l-4.65-9.4-4.68,9.5a1.94,1.94,0,0,1-.71.93,1.61,1.61,0,0,1-.89.33H235.8a1.12,1.12,0,0,1-1.05-.82Z"/><path class="cls-1" d="M286.28,161.47a4.78,4.78,0,0,1-.9,1,1.93,1.93,0,0,1-1.28.51h-5.49a2.75,2.75,0,0,1-1.33-.3,1.18,1.18,0,0,1-.54-1.12,2.91,2.91,0,0,1,.14-.92L282.64,145l-12.35-30.3h0a2.28,2.28,0,0,1-.25-.68,3.89,3.89,0,0,1-.05-.48c0-1,.61-1.49,1.83-1.49h5.94a2.09,2.09,0,0,1,2.14,1.59v0l2.58,6.72c.83,2.35,1.64,4.59,2.42,6.7s1.59,4.26,2.43,6.43l7.29-19.92a2.16,2.16,0,0,1,2.24-1.49h5.87a1.94,1.94,0,0,1,1.48.46,1.69,1.69,0,0,1,.42,1.2,1.83,1.83,0,0,1-.07.46,6.42,6.42,0,0,1-.23.76Z"/><path class="cls-1" d="M179.69,112h-4.4a2.08,2.08,0,0,0-2.07,2,16.82,16.82,0,1,0,0,29v.23a2.1,2.1,0,0,0,2.09,2.1h4.4a2.1,2.1,0,0,0,2.09-2.1V114.14A2.1,2.1,0,0,0,179.69,112Zm-8.22,21.08a8.18,8.18,0,1,1-2.21-11.36A8.18,8.18,0,0,1,171.47,133.12Z"/><path class="cls-1" d="M227.26,114.59A16.83,16.83,0,1,0,231.8,138,16.83,16.83,0,0,0,227.26,114.59Zm-2.63,18.53a8.18,8.18,0,1,1-2.21-11.36A8.18,8.18,0,0,1,224.63,133.12Z"/></svg>