<?xml version="1.0" encoding="UTF-8" standalone="no"?>
<!-- Generator: Adobe Illustrator 21.0.0, SVG Export Plug-In . SVG Version: 6.00 Build 0)  -->

<svg
   xmlns:dc="http://purl.org/dc/elements/1.1/"
   xmlns:cc="http://creativecommons.org/ns#"
   xmlns:rdf="http://www.w3.org/1999/02/22-rdf-syntax-ns#"
   xmlns:svg="http://www.w3.org/2000/svg"
   xmlns="http://www.w3.org/2000/svg"
   xmlns:sodipodi="http://sodipodi.sourceforge.net/DTD/sodipodi-0.dtd"
   xmlns:inkscape="http://www.inkscape.org/namespaces/inkscape"
   version="1.1"
   id="Ebene_1"
   x="0px"
   y="0px"
   viewBox="0 0 295 94.099998"
   xml:space="preserve"
   inkscape:version="0.91 r13725"
   sodipodi:docname="bosch-en-white.svg"
   width="295"
   height="94.099998"><metadata
     id="metadata35"><rdf:RDF><cc:Work
         rdf:about=""><dc:format>image/svg+xml</dc:format><dc:type
           rdf:resource="http://purl.org/dc/dcmitype/StillImage" /><dc:title></dc:title></cc:Work></rdf:RDF></metadata><defs
     id="defs33" /><sodipodi:namedview
     pagecolor="#ffffff"
     bordercolor="#666666"
     borderopacity="1"
     objecttolerance="10"
     gridtolerance="10"
     guidetolerance="10"
     inkscape:pageopacity="0"
     inkscape:pageshadow="2"
     inkscape:window-width="1807"
     inkscape:window-height="1058"
     id="namedview31"
     showgrid="false"
     fit-margin-top="0"
     fit-margin-left="0"
     fit-margin-right="0"
     fit-margin-bottom="0"
     inkscape:zoom="0.87733333"
     inkscape:cx="151.5"
     inkscape:cy="49.1"
     inkscape:window-x="0"
     inkscape:window-y="27"
     inkscape:window-maximized="0"
     inkscape:current-layer="Ebene_1" /><style
     type="text/css"
     id="style3">
	.st0{fill:#FFFFFF;}
	.st1{fill-rule:evenodd;clip-rule:evenodd;fill:#FFFFFF;}
</style><g
     id="g5"
     transform="translate(-36,-45)"><path
       class="st0"
       d="M 67.2,45 C 49.9,45 36,58.9 36,76.2 c 0,17.2 13.9,31.2 31.2,31.2 17.2,0 31.2,-13.9 31.2,-31.2 C 98.5,58.9 84.4,45 67.2,45 l 0,0 z m 0,59.5 c -15.6,0 -28.3,-12.7 -28.3,-28.3 0,-15.6 12.7,-28.3 28.3,-28.3 15.6,0 28.3,12.7 28.3,28.3 0,15.6 -12.7,28.3 -28.3,28.3 l 0,0 z m 0,0"
       id="path7"
       inkscape:connector-curvature="0"
       style="fill:#ffffff" /><path
       class="st0"
       d="m 80.1,56.7 -2.1,0 0,10.7 -21.5,0 0,-10.7 -2.2,0 C 48,60.9 43.8,68.1 43.8,76.2 c 0,8.2 4.2,15.3 10.5,19.5 l 2.2,0 0,-10.8 21.5,0 0,10.7 2.1,0 c 6.4,-4.2 10.5,-11.3 10.5,-19.5 0,-8 -4.2,-15.2 -10.5,-19.4 l 0,0 z M 53.6,91.4 c -4.3,-3.8 -6.8,-9.3 -6.8,-15.3 0,-5.9 2.6,-11.5 6.8,-15.3 l 0,30.6 z M 78,82 l -21.5,0 0,-11.7 21.5,0 0,11.7 z m 2.9,9.4 0,-30.4 c 4.3,3.8 6.8,9.3 6.8,15.3 0,5.8 -2.5,11.3 -6.8,15.1 l 0,0 z m 0,0"
       id="path9"
       inkscape:connector-curvature="0"
       style="fill:#ffffff" /><path
       class="st1"
       d="m 161.7,75.3 c 0,0 6,-2 6,-8.4 0,-7.6 -5.7,-11.3 -13.5,-11.3 l -20.4,0 0,41.2 22.2,0 c 6.8,0 13.6,-4.5 13.6,-11.5 -0.1,-8.3 -7.9,-10 -7.9,-10 l 0,0 z m -17.2,-11.2 7.9,0 c 2.4,0 4.1,1.6 4.1,3.9 0,1.8 -1.6,3.8 -4.4,3.8 l -7.7,0 0.1,-7.7 0,0 z m 8,24 -7.9,0 0,-8.1 7.7,0 c 3.9,0 5.7,1.6 5.7,4 -0.1,3 -2.3,4.1 -5.5,4.1 l 0,0 z m 0,0"
       id="path11"
       inkscape:connector-curvature="0"
       style="clip-rule:evenodd;fill:#ffffff;fill-rule:evenodd" /><path
       class="st1"
       d="m 193,54.5 c -12.5,0 -19.9,9.5 -19.9,21.5 0,12.1 7.4,21.6 19.9,21.6 12.6,0 19.9,-9.5 19.9,-21.6 C 213,64 205.7,54.5 193,54.5 l 0,0 z m 0,33.3 c -6.2,0 -9.2,-5.2 -9.2,-11.7 0,-6.4 3,-11.7 9.2,-11.7 6.2,0 9.3,5.2 9.3,11.7 0,6.4 -3.1,11.7 -9.3,11.7 l 0,0 z m 0,0"
       id="path13"
       inkscape:connector-curvature="0"
       style="clip-rule:evenodd;fill:#ffffff;fill-rule:evenodd" /><path
       class="st1"
       d="m 236.2,71.6 -1.6,-0.3 c -3.7,-0.7 -6.6,-1.6 -6.6,-4.1 0,-2.7 2.8,-3.8 5.3,-3.8 3.7,0 6.8,1.7 8.9,3.8 l 6.7,-6.4 c -3,-3.3 -8.1,-6.4 -15.8,-6.4 -9,0.1 -16,4.9 -16,13 0,7.3 5.7,11.1 12.4,12.4 l 1.6,0.3 c 5.7,1.2 7.7,2 7.7,4.5 0,2.4 -2.3,4 -5.8,4 -4.3,0 -8.1,-1.7 -11,-5.3 l -7,6.4 c 3.8,4.3 8.6,7.8 18.1,7.8 8.2,0 16.8,-4.4 16.8,-13.4 -0.1,-9.4 -7.6,-11.2 -13.7,-12.5 l 0,0 z m 0,0"
       id="path15"
       inkscape:connector-curvature="0"
       style="clip-rule:evenodd;fill:#ffffff;fill-rule:evenodd" /><path
       class="st1"
       d="m 274,87.8 c -4.8,0 -9.8,-3.8 -9.8,-12 0,-7.3 4.6,-11.5 9.5,-11.5 3.8,0 6.1,1.7 7.9,4.6 l 8.8,-5.5 c -4.3,-6.3 -9.6,-8.9 -16.7,-8.9 -13.1,0 -20.2,9.7 -20.2,21.3 0,12.2 7.9,21.9 20.1,21.9 8.6,0 12.7,-2.9 17.1,-8.9 l -8.9,-5.7 c -1.7,2.7 -3.6,4.7 -7.8,4.7 l 0,0 z m 0,0"
       id="path17"
       inkscape:connector-curvature="0"
       style="clip-rule:evenodd;fill:#ffffff;fill-rule:evenodd" /><path
       class="st1"
       d="m 319.5,55.5 0,15.2 -13.1,0 0,-15.2 -11.4,0 0,41.2 11.4,0 0,-16.3 13.1,0 0,16.3 11.5,0 0,-41.2 -11.5,0 z m 0,0"
       id="path19"
       inkscape:connector-curvature="0"
       style="clip-rule:evenodd;fill:#ffffff;fill-rule:evenodd" /><path
       class="st0"
       d="m 133.8,138.7 2.3,0 0,-19.8 -2.3,0 0,19.8 0,0 z m 7.6,0 2.3,0 0,-8.9 c 0,-1.1 0.3,-2 0.9,-2.7 0.7,-0.8 1.7,-1.2 2.9,-1.2 1,0 1.7,0.3 2.2,0.8 0.6,0.6 0.8,1.5 0.8,2.8 l 0,9.2 2.3,0 0,-9 c 0,-1.7 -0.4,-3.1 -1.1,-4.1 -0.8,-1.1 -2.1,-1.7 -3.7,-1.7 -2.1,0 -3.5,0.8 -4.4,2.5 l 0,-2.2 -2.3,0 0,14.5 0.1,0 z"
       id="path21"
       inkscape:connector-curvature="0"
       style="fill:#ffffff" /><path
       class="st0"
       d="m 160.1,138.7 2.7,0 4.9,-14.5 -2.4,0 -3.8,12.2 -3.9,-12.2 -2.5,0 5,14.5 0,0 z m 21.7,-2.3 -1.7,-1.4 c -0.5,0.7 -1.1,1.2 -1.7,1.5 -0.6,0.3 -1.3,0.5 -2.2,0.5 -1.4,0 -2.5,-0.3 -3.2,-1 -0.5,-0.5 -0.9,-1 -1.1,-1.7 -0.2,-0.6 -0.4,-1.5 -0.4,-2.5 l 10.4,0 0,-0.7 c 0,-2.1 -0.5,-3.8 -1.4,-5 -1.1,-1.5 -2.7,-2.2 -4.8,-2.2 -1.8,0 -3.3,0.6 -4.5,1.8 -1.4,1.4 -2.1,3.3 -2.1,5.7 0,2.1 0.5,3.8 1.6,5.1 1.3,1.6 3.1,2.3 5.6,2.3 2.5,0.2 4.3,-0.7 5.5,-2.4 l 0,0 0,0 z m -6.1,-10.5 c 1.1,0 2,0.3 2.6,0.9 0.7,0.6 1.1,1.8 1.2,3.3 l -8,0 c 0.6,-2.8 1.9,-4.2 4.2,-4.2 l 0,0 0,0 z m 9.7,12.8 2.3,0 0,-8.9 c 0,-1.1 0.3,-2 0.9,-2.7 0.7,-0.8 1.7,-1.2 2.9,-1.2 1,0 1.7,0.3 2.2,0.8 0.6,0.6 0.8,1.5 0.8,2.8 l 0,9.2 2.3,0 0,-9 c 0,-1.7 -0.4,-3.1 -1.1,-4.1 -0.8,-1.1 -2.1,-1.7 -3.7,-1.7 -2.1,0 -3.5,0.8 -4.4,2.5 l 0,-2.2 -2.3,0 0,14.5 0.1,0 z m 14.5,-12.6 2.2,0 0,9.3 c 0,1 0.3,1.8 0.9,2.5 0.7,0.7 1.7,1.1 2.9,1.1 1.1,0 2.1,-0.3 3,-1 l -0.9,-1.6 c -0.6,0.5 -1.3,0.7 -2,0.7 -1.1,0 -1.7,-0.7 -1.7,-2.1 l 0,-8.9 3.7,0 0,-1.9 -3.7,0 0,-4.3 -2.3,0.6 0,3.8 -2.2,0 0,1.8 0.1,0 z"
       id="path23"
       inkscape:connector-curvature="0"
       style="fill:#ffffff" /><path
       class="st0"
       d="M 222.7,136.4 221,135 c -0.5,0.7 -1.1,1.2 -1.7,1.5 -0.6,0.3 -1.3,0.5 -2.2,0.5 -1.4,0 -2.5,-0.3 -3.2,-1 -0.5,-0.5 -0.9,-1 -1.1,-1.7 -0.2,-0.6 -0.4,-1.5 -0.4,-2.5 l 10.4,0 0,-0.7 c 0,-2.1 -0.5,-3.8 -1.4,-5 -1.1,-1.5 -2.7,-2.2 -4.8,-2.2 -1.8,0 -3.3,0.6 -4.5,1.8 -1.4,1.4 -2.1,3.3 -2.1,5.7 0,2.1 0.5,3.8 1.6,5.1 1.3,1.6 3.1,2.3 5.6,2.3 2.5,0.2 4.3,-0.7 5.5,-2.4 l 0,0 0,0 z m -6.1,-10.5 c 1.1,0 2,0.3 2.6,0.9 0.7,0.6 1.1,1.8 1.2,3.3 l -8,0 c 0.6,-2.8 1.9,-4.2 4.2,-4.2 l 0,0 0,0 z m 19.6,12.8 2.3,0 0,-20.9 -2.3,0 0,8.8 c -1.1,-1.8 -2.7,-2.6 -4.8,-2.6 -1.7,0 -3.2,0.6 -4.3,1.8 -1.3,1.4 -1.9,3.3 -1.9,5.7 0,2.1 0.5,3.9 1.5,5.2 1.1,1.6 2.7,2.3 4.7,2.3 2.1,0 3.7,-0.9 4.8,-2.6 l 0,2.3 0,0 z M 235,127.2 c 0.9,1 1.4,2.4 1.4,4.3 0,1.7 -0.3,3 -1,3.9 -0.8,1.1 -2,1.7 -3.5,1.7 -2.8,0 -4.2,-1.8 -4.2,-5.5 0,-1.7 0.3,-3 1,-4 0.7,-1.1 1.8,-1.7 3.3,-1.7 1.1,0 2.2,0.4 3,1.3 l 0,0 0,0 z m 14.9,-1.1 2.1,0 0,12.6 2.3,0 0,-12.6 3.3,0 0,-1.9 -3.3,0 0,-2.2 c 0,-0.8 0.2,-1.4 0.6,-1.8 0.4,-0.4 0.9,-0.7 1.5,-0.7 0.6,0 1.2,0.2 1.9,0.5 l 0.6,-1.8 c -0.8,-0.4 -1.7,-0.7 -2.6,-0.7 -1.3,0 -2.3,0.4 -3,1.1 -0.9,0.8 -1.3,2 -1.3,3.6 l 0,2 -2.1,0 0,1.9 0,0 z"
       id="path25"
       inkscape:connector-curvature="0"
       style="fill:#ffffff" /><path
       class="st0"
       d="m 261.2,125.9 c -1.5,1.4 -2.2,3.3 -2.2,5.7 0,2 0.6,3.7 1.7,5.1 1.3,1.6 3,2.4 5.1,2.4 1.9,0 3.4,-0.6 4.7,-1.9 1.5,-1.4 2.2,-3.3 2.2,-5.7 0,-2 -0.6,-3.7 -1.7,-5.1 -1.3,-1.6 -3,-2.4 -5.1,-2.4 -1.9,0 -3.4,0.6 -4.7,1.9 l 0,0 0,0 z m 7.8,1.3 c 0.9,1 1.4,2.4 1.4,4.3 0,1.6 -0.4,2.9 -1.1,3.9 -0.8,1.1 -2,1.7 -3.4,1.7 -1.3,0 -2.3,-0.4 -3.1,-1.3 -0.9,-1 -1.4,-2.4 -1.4,-4.2 0,-1.6 0.4,-3 1.1,-3.9 0.8,-1.1 2,-1.7 3.5,-1.7 1.2,-0.1 2.2,0.4 3,1.2 l 0,0 0,0 z m 7.5,11.5 2.3,0 0,-8 c 0,-1.4 0.3,-2.4 0.8,-3.3 0.6,-1 1.6,-1.4 2.8,-1.4 0.6,0 1.1,0.1 1.7,0.4 l 0.9,-1.9 c -0.7,-0.4 -1.5,-0.6 -2.4,-0.6 -1.7,0 -3,0.9 -3.9,2.6 l 0,-2.3 -2.3,0 0,14.5 0.1,0 z m 24.9,-0.4 -0.8,-1.7 c -0.4,0.3 -0.9,0.5 -1.4,0.5 -1.1,0 -1.6,-0.6 -1.6,-1.7 l 0,-17.5 -2.3,0 0,17.3 c 0,2.5 1.2,3.8 3.5,3.8 1.1,0 1.9,-0.3 2.6,-0.7 l 0,0 0,0 z m 2.2,-19.7 c -0.3,0.3 -0.4,0.7 -0.4,1.1 0,0.4 0.1,0.8 0.4,1.1 0.3,0.3 0.7,0.4 1.1,0.4 0.4,0 0.8,-0.1 1.1,-0.4 0.3,-0.3 0.4,-0.7 0.4,-1.1 0,-0.4 -0.1,-0.8 -0.4,-1.1 -0.3,-0.3 -0.7,-0.4 -1.1,-0.4 -0.5,0 -0.8,0.1 -1.1,0.4 l 0,0 z m 0,20.1 2.3,0 0,-14.5 -2.3,0 0,14.5 0,0 z"
       id="path27"
       inkscape:connector-curvature="0"
       style="fill:#ffffff" /><path
       class="st0"
       d="m 309,126.1 2.1,0 0,12.6 2.3,0 0,-12.6 3.3,0 0,-1.9 -3.3,0 0,-2.2 c 0,-0.8 0.2,-1.4 0.6,-1.8 0.4,-0.4 0.9,-0.7 1.5,-0.7 0.6,0 1.2,0.2 1.9,0.5 l 0.6,-1.8 c -0.8,-0.4 -1.7,-0.7 -2.6,-0.7 -1.3,0 -2.3,0.4 -3,1.1 -0.9,0.8 -1.3,2 -1.3,3.6 l 0,2 -2.1,0 0,1.9 0,0 z m 21.8,10.3 -1.7,-1.4 c -0.5,0.7 -1.1,1.2 -1.7,1.5 -0.6,0.3 -1.3,0.5 -2.2,0.5 -1.4,0 -2.5,-0.3 -3.2,-1 -0.5,-0.5 -0.9,-1 -1.1,-1.7 -0.2,-0.6 -0.4,-1.5 -0.4,-2.5 l 10.4,0 0,-0.7 c 0,-2.1 -0.5,-3.8 -1.4,-5 -1.1,-1.5 -2.7,-2.2 -4.8,-2.2 -1.8,0 -3.3,0.6 -4.5,1.8 -1.4,1.4 -2.1,3.3 -2.1,5.7 0,2.1 0.5,3.8 1.6,5.1 1.3,1.6 3.1,2.3 5.6,2.3 2.5,0.2 4.3,-0.7 5.5,-2.4 l 0,0 0,0 z m -6.1,-10.5 c 1.1,0 2,0.3 2.6,0.9 0.7,0.6 1.1,1.8 1.2,3.3 l -8,0 c 0.6,-2.8 2,-4.2 4.2,-4.2 l 0,0 0,0 z"
       id="path29"
       inkscape:connector-curvature="0"
       style="fill:#ffffff" /></g></svg>