<?xml version="1.0" encoding="utf-8"?>
<!-- Generator: Adobe Illustrator 16.0.4, SVG Export Plug-In . SVG Version: 6.00 Build 0)  -->
<!DOCTYPE svg PUBLIC "-//W3C//DTD SVG 1.1//EN" "http://www.w3.org/Graphics/SVG/1.1/DTD/svg11.dtd">
<svg version="1.1" id="Layer_1" xmlns="http://www.w3.org/2000/svg" xmlns:xlink="http://www.w3.org/1999/xlink" x="0px" y="0px"
	 width="270.825px" height="93.432px" viewBox="0 0 270.825 93.432" enable-background="new 0 0 270.825 93.432"
	 xml:space="preserve">
<g>
	<path fill="#F79322" d="M267.165,86.697l-8.675-10.993h-2.707v17.728h3.338V81.479l9.308,11.952h2.074V75.704h-3.338V86.697z
		 M234.752,78.411c4.173,0,5.843,3.337,5.792,6.322c-0.052,2.907-1.619,6.044-5.792,6.044c-4.174,0-5.74-3.111-5.816-6.02
		C228.858,81.774,230.578,78.411,234.752,78.411 M234.752,75.375c-6.12,0-9.104,4.679-9.104,9.332c0,4.654,2.882,9.129,9.104,9.129
		s9.027-4.577,9.078-9.154C243.882,80.054,240.847,75.375,234.752,75.375 M213.518,75.704h-3.313v17.728h3.313V75.704z
		 M189.957,93.432h3.339V78.739h5.613v-3.035h-14.566v3.035h5.614V93.432z M171.05,86.984h-6.575l3.287-7.555L171.05,86.984z
		 M173.882,93.432h3.643l-7.94-17.728h-3.643l-7.942,17.728h3.617l1.518-3.338h9.256L173.882,93.432z M135.88,78.866h3.641
		c3.845,0,5.462,2.761,5.539,5.524c0.076,2.893-1.518,5.829-5.539,5.829h-3.641V78.866z M139.521,75.704h-6.955v17.728h6.955
		c6.197,0,8.928-4.525,8.853-9.016C148.298,80.029,145.592,75.704,139.521,75.704 M117.149,86.697l-8.674-10.993h-2.706v17.728
		h3.338V81.479l9.306,11.952h2.074V75.704h-3.338V86.697z M89.694,75.754v10.143c0,3.035-1.569,4.881-4.324,4.881
		c-2.758,0-4.578-1.695-4.578-4.881V75.754h-3.313v10.143c0,5.336,3.616,7.916,7.865,7.916c4.45,0,7.662-2.681,7.662-7.916V75.754
		H89.694z M56.7,78.411c4.174,0,5.843,3.337,5.792,6.322c-0.051,2.907-1.618,6.044-5.792,6.044c-4.172,0-5.74-3.111-5.816-6.02
		C50.808,81.774,52.527,78.411,56.7,78.411 M56.7,75.375c-6.12,0-9.104,4.679-9.104,9.332c0,4.654,2.883,9.129,9.104,9.129
		c6.221,0,9.029-4.577,9.079-9.154C65.83,80.054,62.794,75.375,56.7,75.375 M26.917,93.432v-6.55h8.877v-3.086h-8.877v-4.83H36.3
		v-3.212H23.58v17.678H26.917z"/>
	<path fill="#3D3C3B" d="M270.825,57.147h-22.167v-8.912h21.378v-6.938h-21.378v-9.137h22.167V24.94h-29.555v39.54h29.555V57.147z
		 M230.85,31.483c-2.989-6.091-9.363-7.839-15.512-7.839c-7.275,0.056-15.285,3.384-15.285,11.506
		c0,8.856,7.445,10.999,15.512,11.957c5.245,0.564,9.137,2.088,9.137,5.81c0,4.287-4.4,5.923-9.081,5.923
		c-4.795,0-9.363-1.918-11.112-6.261l-6.203,3.215c2.933,7.219,9.138,9.702,17.203,9.702c8.799,0,16.583-3.78,16.583-12.579
		c0-9.419-7.671-11.562-15.906-12.578c-4.738-0.564-8.8-1.523-8.8-4.963c0-2.934,2.651-5.247,8.18-5.247
		c4.286,0,8.009,2.144,9.363,4.4L230.85,31.483z M177.505,24.94c-6.205-0.056-12.409,0-18.612,0v39.54h7.444V52.861h11.168
		C196.853,52.861,196.795,24.94,177.505,24.94 M166.337,32.048h11.168c9.477,0,9.532,13.988,0,13.988h-11.168V32.048z
		 M148.359,24.94h-7.39v39.54h7.39V24.94z M104.378,24.94v39.54h27.751v-6.881h-20.306V24.94H104.378z M92.153,54.384
		c-2.595,2.595-6.487,4.004-9.928,4.004c-9.757,0-13.537-6.824-13.593-13.367c-0.057-6.6,4.061-13.706,13.593-13.706
		c3.441,0,6.938,1.184,9.533,3.722l4.963-4.794c-4.06-4.005-9.137-6.036-14.496-6.036c-14.27,0-20.982,10.492-20.925,20.814
		c0.055,10.265,6.261,20.361,20.925,20.361c5.697,0,10.943-1.861,15.004-5.866L92.153,54.384z M53.136,57.147H30.969v-8.912h21.377
		v-6.938H30.969v-9.137h22.167V24.94H23.579v39.54h29.557V57.147z"/>
	<path fill="#F79322" d="M11.259,20.922C20.304,6.818,38.412,1.892,53.515,8.669c-0.334-0.232-0.669-0.466-1.014-0.688
		C37.037-1.936,16.486,2.52,6.6,17.934c-9.885,15.415-5.363,35.951,10.102,45.869c0.346,0.223,0.698,0.429,1.049,0.636
		C5.29,53.54,2.214,35.026,11.259,20.922"/>
</g>
</svg>
