<?xml version="1.0" encoding="UTF-8" standalone="no"?>
<!-- Created with Inkscape (http://www.inkscape.org/) -->

<svg
        xmlns:dc="http://purl.org/dc/elements/1.1/"
        xmlns:cc="http://creativecommons.org/ns#"
        xmlns:rdf="http://www.w3.org/1999/02/22-rdf-syntax-ns#"
        xmlns="http://www.w3.org/2000/svg"
        xmlns:sodipodi="http://sodipodi.sourceforge.net/DTD/sodipodi-0.dtd"
        xmlns:inkscape="http://www.inkscape.org/namespaces/inkscape"
        width="20.146963mm"
        height="15.079926mm"
        viewBox="0 0 20.146963 15.079926"
        version="1.1"
        id="svg71"
        inkscape:version="0.92.2 (5c3e80d, 2017-08-06)"
        sodipodi:docname="ditto_allwhite_symbolonly.svg">
  <defs
     id="defs65" />
  <sodipodi:namedview
     id="base"
     pagecolor="#ffffff"
     bordercolor="#666666"
     borderopacity="1.0"
     inkscape:pageopacity="0.0"
     inkscape:pageshadow="2"
     inkscape:zoom="3.959798"
     inkscape:cx="43.404713"
     inkscape:cy="-22.948143"
     inkscape:document-units="mm"
     inkscape:current-layer="g123"
     showgrid="false"
     inkscape:window-width="1920"
     inkscape:window-height="1137"
     inkscape:window-x="-8"
     inkscape:window-y="-8"
     inkscape:window-maximized="1" />
  <metadata
     id="metadata68">
    <rdf:RDF>
      <cc:Work
         rdf:about="">
        <dc:format>image/svg+xml</dc:format>
        <dc:type
           rdf:resource="http://purl.org/dc/dcmitype/StillImage" />
        <dc:title></dc:title>
      </cc:Work>
    </rdf:RDF>
  </metadata>
  <g
     inkscape:label="Layer 1"
     inkscape:groupmode="layer"
     id="layer1"
     transform="translate(-76.105091,-47.149763)">
    <g
       id="g123"
       transform="matrix(0.26458333,0,0,0.26458333,-25.196458,-19.11963)">
      <g
         id="g107">
        <polygon
           id="polygon73"
           points="432.838,264.533 432.838,257.515 432.84,257.515 438.936,261.058 "
           style="opacity:0.45;fill:#f9f9f9" />
        <polygon
           id="polygon75"
           points="432.898,264.566 426.74,261.058 420.527,264.668 420.557,271.739 "
           style="opacity:0.8;fill:#f9f9f9" />
        <polygon
           id="polygon77"
           points="420.5,257.517 420.527,264.668 426.74,261.058 "
           style="opacity:0.7;fill:#f9f9f9" />
        <polygon
           id="polygon79"
           points="426.74,261.058 432.838,264.533 432.84,257.515 "
           style="opacity:0.6;fill:#f9f9f9" />
        <polygon
           id="polygon81"
           points="420.5,257.517 426.74,261.058 432.838,257.515 432.838,250.467 "
           style="opacity:0.5;fill:#f9f9f9" />
        <g
           id="g87">
          <polygon
             id="polygon83"
             points="432.838,293.394 426.74,296.869 420.527,293.259 420.557,286.188 "
             style="opacity:0.8;fill:#f9f9f9" />
          <polygon
             id="polygon85"
             points="420.5,300.412 420.527,293.259 426.74,296.869 "
             style="opacity:0.7;fill:#f9f9f9" />
        </g>
        <path
           id="path89"
           d="m 408.187,250.467 -12.47,6.795 -12.84,7.302 v 0.131 l -0.005,-0.004 v 14.228 0.091 14.226 l 0.005,-0.002 v 0.131 l 12.84,7.302 12.473,6.795 12.332,-7.048 0.035,-6.877 v -7.348 l -12.431,7.173 -12.47,-7.555 v -0.128 -13.431 l 0.002,-0.124 12.468,-7.557 12.431,7.173 -0.03,-7.071 v -7.153 z m -25.188,28.476 0.04,0.021 -0.04,0.02 -0.036,-0.02 z"
           inkscape:connector-curvature="0"
           style="fill:#f9f9f9" />
        <polygon
           id="polygon91"
           points="432.838,257.515 432.838,250.467 445.176,257.517 438.936,261.058 432.84,257.515 "
           style="opacity:0.25;fill:#f9f9f9" />
        <polygon
           id="polygon93"
           points="432.818,264.566 438.977,261.058 445.193,264.668 445.162,271.739 "
           style="opacity:0.25;fill:#f9f9f9" />
        <polygon
           id="polygon95"
           points="432.838,293.394 432.838,300.412 432.84,300.412 438.936,296.869 "
           style="opacity:0.45;fill:#f9f9f9" />
        <polygon
           id="polygon97"
           points="426.74,296.869 432.838,293.394 432.84,300.412 "
           style="opacity:0.6;fill:#f9f9f9" />
        <polygon
           id="polygon99"
           points="420.5,300.408 426.74,296.869 432.838,300.412 432.838,307.46 "
           style="opacity:0.5;fill:#f9f9f9" />
        <polygon
           id="polygon101"
           points="432.838,300.412 432.838,307.46 445.176,300.408 438.936,296.869 432.84,300.412 "
           style="opacity:0.25;fill:#f9f9f9" />
        <polygon
           id="polygon103"
           points="432.838,293.394 438.977,296.869 445.193,293.256 445.162,286.188 "
           style="opacity:0.25;fill:#f9f9f9" />
        <path
           id="path105"
           d="m 438.088,296.902 c 0,0.47 0.379,0.849 0.848,0.849 0.299,0 0.547,-0.163 0.699,-0.396 l 4.766,2.779 c -0.031,0.087 -0.057,0.181 -0.057,0.278 0,0.471 0.379,0.85 0.85,0.85 0.469,0 0.848,-0.379 0.848,-0.85 0,-0.091 -0.025,-0.174 -0.051,-0.257 l 11.506,-6.243 c 0.162,0.185 0.387,0.312 0.654,0.312 0.479,0 0.867,-0.386 0.867,-0.865 0,-0.425 -0.311,-0.76 -0.713,-0.834 l -0.002,-12.727 c 0.404,-0.074 0.715,-0.41 0.715,-0.834 0,-0.425 -0.311,-0.761 -0.715,-0.835 l 0.002,-12.727 c 0.402,-0.074 0.713,-0.409 0.713,-0.836 0,-0.479 -0.389,-0.865 -0.867,-0.865 -0.268,0 -0.492,0.129 -0.654,0.312 l -11.506,-6.241 c 0.025,-0.083 0.051,-0.166 0.051,-0.257 0,-0.471 -0.379,-0.85 -0.848,-0.85 -0.471,0 -0.85,0.379 -0.85,0.85 0,0.098 0.025,0.189 0.057,0.278 l -4.766,2.776 c -0.152,-0.232 -0.4,-0.394 -0.699,-0.394 -0.469,0 -0.848,0.379 -0.848,0.847 0,0.469 0.379,0.85 0.848,0.85 0.26,0 0.48,-0.124 0.639,-0.307 l 4.846,2.761 c -0.047,0.104 -0.076,0.22 -0.076,0.342 0,0.414 0.303,0.743 0.691,0.817 v 5.71 c -0.389,0.074 -0.691,0.402 -0.691,0.814 0,0.414 0.303,0.745 0.691,0.818 v 12.271 c -0.389,0.073 -0.691,0.402 -0.691,0.816 0,0.411 0.303,0.742 0.691,0.816 v 5.708 c -0.389,0.076 -0.691,0.403 -0.691,0.816 0,0.122 0.029,0.24 0.076,0.345 l -4.846,2.759 c -0.158,-0.183 -0.379,-0.307 -0.639,-0.307 -0.469,0.002 -0.848,0.383 -0.848,0.851 z m 6.947,-33.05 c -0.168,0.033 -0.324,0.101 -0.441,0.216 l -4.863,-2.772 c 0.029,-0.087 0.053,-0.174 0.053,-0.272 0,-0.057 -0.021,-0.106 -0.031,-0.163 l 4.805,-2.796 c 0.125,0.142 0.289,0.23 0.479,0.268 v 5.519 z m 12.959,1.55 v 12.729 c -0.188,0.037 -0.354,0.119 -0.475,0.255 l -4.988,-2.636 c 0.033,-0.096 0.061,-0.195 0.061,-0.303 0,-0.422 -0.309,-0.76 -0.709,-0.834 v -5.361 c 0.4,-0.074 0.709,-0.41 0.709,-0.834 0,-0.122 -0.027,-0.24 -0.072,-0.345 l 4.982,-2.946 c 0.125,0.146 0.295,0.238 0.492,0.275 z m -0.707,13.562 c 0,0.098 0.027,0.189 0.057,0.28 l -4.979,2.664 c -0.125,-0.14 -0.291,-0.227 -0.482,-0.264 v -5.364 c 0.191,-0.037 0.357,-0.124 0.482,-0.262 l 4.986,2.634 c -0.037,0.096 -0.064,0.201 -0.064,0.312 z m -4.767,10.887 c 0.045,-0.104 0.072,-0.223 0.072,-0.345 0,-0.422 -0.309,-0.758 -0.709,-0.832 v -5.361 c 0.4,-0.076 0.709,-0.414 0.709,-0.836 0,-0.104 -0.027,-0.205 -0.061,-0.303 l 4.971,-2.659 c 0.125,0.147 0.295,0.244 0.492,0.278 v 12.731 c -0.197,0.035 -0.367,0.127 -0.492,0.274 z m -7.172,4.224 c 0.391,-0.074 0.693,-0.405 0.693,-0.819 0,-0.096 -0.025,-0.187 -0.057,-0.274 l 5.119,-2.879 c 0.156,0.166 0.375,0.271 0.623,0.271 0.244,0 0.463,-0.103 0.617,-0.264 l 0.221,0.129 4.777,2.831 c -0.031,0.087 -0.059,0.187 -0.059,0.289 0,0.102 0.027,0.194 0.057,0.285 l -11.498,6.242 c -0.123,-0.152 -0.297,-0.253 -0.494,-0.29 v -5.521 z m 0.693,-8.16 c 0,-0.055 -0.021,-0.103 -0.029,-0.154 l 5.021,-2.788 c 0.127,0.179 0.314,0.299 0.541,0.34 v 5.359 c -0.215,0.042 -0.396,0.146 -0.521,0.312 l -5.041,-2.918 c 0.008,-0.051 0.029,-0.096 0.029,-0.151 z m -0.693,0.816 c 0.232,-0.043 0.424,-0.176 0.547,-0.37 l 5.018,2.901 c -0.025,0.078 -0.053,0.156 -0.053,0.243 0,0.122 0.025,0.235 0.07,0.34 l -5.102,2.864 c -0.121,-0.142 -0.287,-0.233 -0.48,-0.271 z m 0,-13.916 c 0.227,-0.046 0.424,-0.165 0.547,-0.357 l 5.008,2.781 c -0.018,0.07 -0.043,0.133 -0.043,0.209 0,0.425 0.311,0.76 0.715,0.834 v 5.359 c -0.404,0.077 -0.715,0.412 -0.715,0.835 0,0.076 0.025,0.139 0.043,0.209 l -5.008,2.78 c -0.123,-0.189 -0.32,-0.311 -0.547,-0.356 z m 0.693,-0.805 c 0,-0.053 -0.021,-0.101 -0.029,-0.15 l 5.041,-2.916 c 0.125,0.163 0.307,0.271 0.521,0.31 v 5.359 c -0.227,0.041 -0.414,0.163 -0.541,0.342 l -5.021,-2.79 c 0.008,-0.051 0.029,-0.099 0.029,-0.155 z m -0.693,-6.525 c 0.193,-0.035 0.359,-0.127 0.48,-0.271 l 5.102,2.866 c -0.045,0.104 -0.07,0.216 -0.07,0.338 0,0.087 0.027,0.167 0.053,0.246 l -5.018,2.898 c -0.123,-0.194 -0.314,-0.324 -0.547,-0.368 z m 0,-7.154 c 0.197,-0.039 0.371,-0.138 0.494,-0.29 l 11.498,6.242 c -0.029,0.089 -0.057,0.183 -0.057,0.283 0,0.104 0.027,0.202 0.059,0.291 l -4.777,2.829 -0.221,0.129 c -0.154,-0.161 -0.373,-0.262 -0.617,-0.262 -0.248,0 -0.467,0.104 -0.623,0.271 l -5.119,-2.879 c 0.031,-0.088 0.057,-0.179 0.057,-0.277 0,-0.411 -0.303,-0.742 -0.693,-0.816 v -5.521 z m -5.565,38.571 c 0,-0.097 -0.023,-0.186 -0.053,-0.271 l 4.863,-2.774 c 0.117,0.117 0.273,0.183 0.441,0.218 v 5.521 c -0.189,0.037 -0.354,0.124 -0.479,0.268 l -4.805,-2.8 c 0.012,-0.053 0.033,-0.105 0.033,-0.162 z"
           inkscape:connector-curvature="0"
           style="fill:#f9f9f9" />
      </g>
    </g>
  </g>
</svg>
