<?xml version="1.0" encoding="UTF-8" standalone="no"?>
<!-- Created with Inkscape (http://www.inkscape.org/) -->

<svg
        xmlns:dc="http://purl.org/dc/elements/1.1/"
        xmlns:cc="http://creativecommons.org/ns#"
        xmlns:rdf="http://www.w3.org/1999/02/22-rdf-syntax-ns#"
        xmlns="http://www.w3.org/2000/svg"
        xmlns:sodipodi="http://sodipodi.sourceforge.net/DTD/sodipodi-0.dtd"
        xmlns:inkscape="http://www.inkscape.org/namespaces/inkscape"
        width="19.577579mm"
        height="6.3486772mm"
        viewBox="0 0 19.577579 6.348677"
        version="1.1"
        id="svg71"
        sodipodi:docname="ditto_allwhite_textonly.svg"
        inkscape:version="0.92.2 (5c3e80d, 2017-08-06)">
  <defs
     id="defs65" />
  <sodipodi:namedview
     id="base"
     pagecolor="#ffffff"
     bordercolor="#666666"
     borderopacity="1.0"
     inkscape:pageopacity="0.0"
     inkscape:pageshadow="2"
     inkscape:zoom="3.959798"
     inkscape:cx="42.768713"
     inkscape:cy="7.3564308"
     inkscape:document-units="mm"
     inkscape:current-layer="g123"
     showgrid="false"
     inkscape:window-width="1920"
     inkscape:window-height="1137"
     inkscape:window-x="-8"
     inkscape:window-y="-8"
     inkscape:window-maximized="1" />
  <metadata
     id="metadata68">
    <rdf:RDF>
      <cc:Work
         rdf:about="">
        <dc:format>image/svg+xml</dc:format>
        <dc:type
           rdf:resource="http://purl.org/dc/dcmitype/StillImage" />
        <dc:title></dc:title>
      </cc:Work>
    </rdf:RDF>
  </metadata>
  <g
     inkscape:label="Layer 1"
     inkscape:groupmode="layer"
     id="layer1"
     transform="translate(-76.273366,-65.763465)">
    <g
       id="g123"
       transform="matrix(0.26458333,0,0,0.26458333,-25.196458,-19.11963)">
      <g
         id="g121">
        <path
           id="path109"
           d="m 406.487,330.292 c -2.059,-2.827 -2.059,-2.827 -2.059,-2.827 h 4.021 c 1.562,0 2.226,0.697 2.226,2.261 v 10.401 c 0,0.466 0.266,0.731 0.732,0.731 h 1.328 v 3.555 h -4.021 c -1.563,0 -2.228,-0.662 -2.228,-2.261 v -11.86 z"
           inkscape:connector-curvature="0"
           style="fill:#f9f9f9" />
        <polygon
           id="polygon111"
           points="410.343,320.818 410.343,324.708 406.687,320.818 "
           style="fill:#f9f9f9" />
        <path
           id="path113"
           d="m 416.356,330.821 -2.192,-3.356 h 2.293 v -4.621 h 4.122 v 4.621 h 3.855 v 3.356 h -3.855 v 6.849 c 0,2.788 2.191,3.188 3.355,3.188 0.465,0 0.766,-0.065 0.766,-0.065 v 3.689 c 0,0 -0.531,0.101 -1.293,0.101 -2.366,0 -7.05,-0.701 -7.05,-6.386 v -7.376 z"
           inkscape:connector-curvature="0"
           style="fill:#f9f9f9" />
        <path
           id="path115"
           d="m 428.652,330.821 -2.193,-3.356 h 2.293 v -4.621 h 4.123 v 4.621 h 3.855 v 3.356 h -3.855 v 6.849 c 0,2.788 2.191,3.188 3.355,3.188 0.465,0 0.768,-0.065 0.768,-0.065 v 3.689 c 0,0 -0.533,0.101 -1.301,0.101 -2.359,0 -7.045,-0.701 -7.045,-6.386 z"
           inkscape:connector-curvature="0"
           style="fill:#f9f9f9" />
        <path
           id="path117"
           d="m 448.193,327.064 c 5.184,0 9.309,3.691 9.309,8.877 0,5.218 -4.125,8.872 -9.309,8.872 -5.15,0 -9.271,-3.654 -9.271,-8.872 0,-5.185 4.121,-8.877 9.271,-8.877 z m 0,14.161 c 2.762,0 5.053,-2.126 5.053,-5.283 0,-3.123 -2.291,-5.283 -5.053,-5.283 -2.727,0 -5.018,2.16 -5.018,5.283 10e-4,3.157 2.292,5.283 5.018,5.283 z"
           inkscape:connector-curvature="0"
           style="fill:#f9f9f9" />
        <path
           id="path119"
           d="m 391.213,327.082 c 3.686,0 4.879,2.06 4.879,2.06 h 0.069 c 0,0 -0.035,-0.433 -0.035,-0.997 v -4.595 l -2.06,-2.71 h 4.02 c 1.56,0 2.257,0.697 2.257,2.257 v 17.034 c 0,0.467 0.266,0.732 0.729,0.732 h 1.296 v 3.55 h -3.886 c -1.528,0 -2.091,-0.728 -2.091,-1.726 0,-0.365 0,-0.631 0,-0.631 h -0.065 c 0,0 -1.397,2.757 -5.28,2.757 -4.585,0 -7.538,-3.619 -7.538,-8.863 0,-5.382 3.219,-8.868 7.705,-8.868 z m 5.012,8.833 c 0,-2.622 -1.361,-5.214 -4.184,-5.214 -2.324,0 -4.251,1.891 -4.251,5.249 0,3.219 1.694,5.309 4.186,5.309 2.191,0 4.249,-1.594 4.249,-5.344 z"
           inkscape:connector-curvature="0"
           style="fill:#f9f9f9" />
      </g>
    </g>
  </g>
</svg>
