<?xml version="1.0" encoding="us-ascii" standalone="no"?><svg xmlns="http://www.w3.org/2000/svg" xmlns:xlink="http://www.w3.org/1999/xlink" contentStyleType="text/css" height="679px" preserveAspectRatio="none" style="width:420px;height:679px;background:#FFFFFF;" version="1.1" viewBox="0 0 420 679" width="420px" zoomAndPan="magnify"><defs/><g><!--entity User--><g id="elem_User"><ellipse cx="223" cy="14" fill="#F1F1F1" rx="8" ry="8" style="stroke:#181818;stroke-width:0.5;"/><text fill="#000000" font-family="sans-serif" font-size="14" lengthAdjust="spacing" textLength="31" x="207.5" y="44.5352">User</text></g><!--entity Discovery Interface--><g id="elem_Discovery Interface"><rect fill="#F1F1F1" height="46.4883" rx="2.5" ry="2.5" style="stroke:#181818;stroke-width:0.5;" width="169" x="66.5" y="120"/><rect fill="#F1F1F1" height="10" style="stroke:#181818;stroke-width:0.5;" width="15" x="215.5" y="125"/><rect fill="#F1F1F1" height="2" style="stroke:#181818;stroke-width:0.5;" width="4" x="213.5" y="127"/><rect fill="#F1F1F1" height="2" style="stroke:#181818;stroke-width:0.5;" width="4" x="213.5" y="131"/><text fill="#000000" font-family="sans-serif" font-size="14" lengthAdjust="spacing" textLength="129" x="81.5" y="153.5352">Discovery Interface</text></g><!--entity AAS Registry Interface--><g id="elem_AAS Registry Interface"><rect fill="#F1F1F1" height="46.4883" rx="2.5" ry="2.5" style="stroke:#181818;stroke-width:0.5;" width="191" x="46.5" y="243"/><rect fill="#F1F1F1" height="10" style="stroke:#181818;stroke-width:0.5;" width="15" x="217.5" y="248"/><rect fill="#F1F1F1" height="2" style="stroke:#181818;stroke-width:0.5;" width="4" x="215.5" y="250"/><rect fill="#F1F1F1" height="2" style="stroke:#181818;stroke-width:0.5;" width="4" x="215.5" y="254"/><text fill="#000000" font-family="sans-serif" font-size="14" lengthAdjust="spacing" textLength="151" x="61.5" y="276.5352">AAS Registry Interface</text></g><!--entity AAS Interface--><g id="elem_AAS Interface"><rect fill="#F1F1F1" height="46.4883" rx="2.5" ry="2.5" style="stroke:#181818;stroke-width:0.5;" width="132" x="69" y="381"/><rect fill="#F1F1F1" height="10" style="stroke:#181818;stroke-width:0.5;" width="15" x="181" y="386"/><rect fill="#F1F1F1" height="2" style="stroke:#181818;stroke-width:0.5;" width="4" x="179" y="388"/><rect fill="#F1F1F1" height="2" style="stroke:#181818;stroke-width:0.5;" width="4" x="179" y="392"/><text fill="#000000" font-family="sans-serif" font-size="14" lengthAdjust="spacing" textLength="92" x="84" y="414.5352">AAS Interface</text></g><!--entity Submodel Registry Interface--><g id="elem_Submodel Registry Interface"><rect fill="#F1F1F1" height="46.4883" rx="2.5" ry="2.5" style="stroke:#181818;stroke-width:0.5;" width="232" x="7" y="504"/><rect fill="#F1F1F1" height="10" style="stroke:#181818;stroke-width:0.5;" width="15" x="219" y="509"/><rect fill="#F1F1F1" height="2" style="stroke:#181818;stroke-width:0.5;" width="4" x="217" y="511"/><rect fill="#F1F1F1" height="2" style="stroke:#181818;stroke-width:0.5;" width="4" x="217" y="515"/><text fill="#000000" font-family="sans-serif" font-size="14" lengthAdjust="spacing" textLength="192" x="22" y="537.5352">Submodel Registry Interface</text></g><!--entity Submodel Interface--><g id="elem_Submodel Interface"><rect fill="#F1F1F1" height="46.4883" rx="2.5" ry="2.5" style="stroke:#181818;stroke-width:0.5;" width="173" x="120.5" y="627"/><rect fill="#F1F1F1" height="10" style="stroke:#181818;stroke-width:0.5;" width="15" x="273.5" y="632"/><rect fill="#F1F1F1" height="2" style="stroke:#181818;stroke-width:0.5;" width="4" x="271.5" y="634"/><rect fill="#F1F1F1" height="2" style="stroke:#181818;stroke-width:0.5;" width="4" x="271.5" y="638"/><text fill="#000000" font-family="sans-serif" font-size="14" lengthAdjust="spacing" textLength="133" x="135.5" y="660.5352">Submodel Interface</text></g><!--link User to Discovery Interface--><g id="link_User_Discovery Interface"><path d="M218.5,22.94 C208.25,41.01 182.81,85.88 166.26,115.08 " fill="none" id="User-to-Discovery Interface" style="stroke:#181818;stroke-width:1.0;"/><polygon fill="#181818" points="163.48,118.99,171.3996,113.1351,165.9469,114.6409,164.4411,109.1881,163.48,118.99" style="stroke:#181818;stroke-width:1.0;"/><text fill="#000000" font-family="sans-serif" font-size="13" lengthAdjust="spacing" textLength="57" x="191" y="86.5684">Asset-ID</text></g><!--link Discovery Interface to AAS Registry Interface--><g id="link_Discovery Interface_AAS Registry Interface"><path d="M149.33,166.48 C147.85,186.34 145.69,215.41 144.1,236.82 " fill="none" id="Discovery Interface-to-AAS Registry Interface" style="stroke:#181818;stroke-width:1.0;"/><polygon fill="#181818" points="143.66,241.64,148.3176,232.962,144.0315,236.6538,140.3397,232.3677,143.66,241.64" style="stroke:#181818;stroke-width:1.0;"/><text fill="#000000" font-family="sans-serif" font-size="13" lengthAdjust="spacing" textLength="47" x="149" y="209.5684">AAS-ID</text></g><!--link AAS Registry Interface to AAS Interface--><g id="link_AAS Registry Interface_AAS Interface"><path d="M140.84,289.46 C139.64,312.79 137.76,349.35 136.46,374.65 " fill="none" id="AAS Registry Interface-to-AAS Interface" style="stroke:#181818;stroke-width:1.0;"/><polygon fill="#181818" points="136.16,379.51,140.6183,370.728,136.4175,374.5166,132.6289,370.3159,136.16,379.51" style="stroke:#181818;stroke-width:1.0;"/><text fill="#000000" font-family="sans-serif" font-size="13" lengthAdjust="spacing" textLength="89" x="141" y="340.0684">AAS-Endpoint</text></g><!--link AAS Interface to Submodel Registry Interface--><g id="link_AAS Interface_Submodel Registry Interface"><path d="M132.77,427.48 C130.8,447.34 127.92,476.41 125.79,497.82 " fill="none" id="AAS Interface-to-Submodel Registry Interface" style="stroke:#181818;stroke-width:1.0;"/><polygon fill="#181818" points="125.22,502.64,130.0762,494.0716,125.7062,497.6637,122.1141,493.2937,125.22,502.64" style="stroke:#181818;stroke-width:1.0;"/><text fill="#000000" font-family="sans-serif" font-size="13" lengthAdjust="spacing" textLength="115" x="131" y="470.5684">AAS (with SM-IDs)</text></g><!--link Submodel Registry Interface to Submodel Interface--><g id="link_Submodel Registry Interface_Submodel Interface"><path d="M123.9,550.33 C125.39,564.64 129.08,583.06 138,597 C144.39,606.99 153.42,615.77 162.84,623.13 " fill="none" id="Submodel Registry Interface-to-Submodel Interface" style="stroke:#181818;stroke-width:1.0;"/><polygon fill="#181818" points="166.49,626.63,161.7096,618.0191,162.4969,623.6209,156.895,624.4081,166.49,626.63" style="stroke:#181818;stroke-width:1.0;"/><text fill="#000000" font-family="sans-serif" font-size="13" lengthAdjust="spacing" textLength="126" x="139" y="593.5684">Submodel-Endpoint</text></g><!--link Submodel Interface to User--><g id="link_Submodel Interface_User"><path d="M241.13,626.67 C251.61,618.41 262.37,608.28 270,597 C288.03,570.34 292,560.19 292,528 C292,142 292,142 292,142 C292,94.68 254.56,48.16 234.83,26.94 " fill="none" id="Submodel Interface-to-User" style="stroke:#181818;stroke-width:1.0;"/><polygon fill="#181818" points="231.92,23.8,235.213,33.082,235.3615,27.4271,241.0164,27.5756,231.92,23.8" style="stroke:#181818;stroke-width:1.0;"/><text fill="#000000" font-family="sans-serif" font-size="13" lengthAdjust="spacing" textLength="93" x="306" y="332.5684">Submodel with</text><text fill="#000000" font-family="sans-serif" font-size="13" lengthAdjust="spacing" textLength="119" x="293" y="347.8789">SubmodelElements</text></g><!--SRC=[2orEBLBGrRLJY7R9B4xEBqijgbJmp2j9BKfBJ4wDjL9mB2vEBT7rTE72AW_HwUWOh12KcfvPN8AksJ4Oh1M70eHkT4skUIa5-Pbv9LneiX0TmQL9kVafgJdOBLK2QT4epop9K0Zs1LfVhAd4XLSBcg4ePi54uIv2DWlDY51WK29fKG0v8IOFndNDISrDpIifLW80]--></g></svg>