<?xml version="1.0" encoding="us-ascii" standalone="no"?><svg xmlns="http://www.w3.org/2000/svg" xmlns:xlink="http://www.w3.org/1999/xlink" contentStyleType="text/css" height="87px" preserveAspectRatio="none" style="width:483px;height:87px;background:#FFFFFF;" version="1.1" viewBox="0 0 483 87" width="483px" zoomAndPan="magnify"><defs/><g><!--entity User--><g id="elem_User"><ellipse cx="21.5" cy="14" fill="#F1F1F1" rx="8" ry="8" style="stroke:#181818;stroke-width:0.5;"/><path d="M21.5,22 L21.5,49 M8.5,30 L34.5,30 M21.5,49 L8.5,64 M21.5,49 L34.5,64 " fill="none" style="stroke:#181818;stroke-width:0.5;"/><text fill="#000000" font-family="sans-serif" font-size="14" lengthAdjust="spacing" textLength="31" x="6" y="79.0352">User</text></g><!--entity Device--><g id="elem_Device"><ellipse cx="454.5" cy="14" fill="#F1F1F1" rx="8" ry="8" style="stroke:#181818;stroke-width:0.5;"/><path d="M454.5,22 L454.5,49 M441.5,30 L467.5,30 M454.5,49 L441.5,64 M454.5,49 L467.5,64 " fill="none" style="stroke:#181818;stroke-width:0.5;"/><text fill="#000000" font-family="sans-serif" font-size="14" lengthAdjust="spacing" textLength="44" x="432.5" y="79.0352">Device</text></g><!--entity BaSyx--><g id="elem_BaSyx"><rect fill="#F1F1F1" height="46.4883" rx="2.5" ry="2.5" style="stroke:#181818;stroke-width:0.5;" width="166" x="72.5" y="20.5"/><rect fill="#F1F1F1" height="10" style="stroke:#181818;stroke-width:0.5;" width="15" x="218.5" y="25.5"/><rect fill="#F1F1F1" height="2" style="stroke:#181818;stroke-width:0.5;" width="4" x="216.5" y="27.5"/><rect fill="#F1F1F1" height="2" style="stroke:#181818;stroke-width:0.5;" width="4" x="216.5" y="31.5"/><text fill="#000000" font-family="sans-serif" font-size="14" lengthAdjust="spacing" textLength="45" x="130" y="50">BaSyx</text></g><!--entity Ditto--><g id="elem_Ditto"><rect fill="#F1F1F1" height="46.4883" rx="2.5" ry="2.5" style="stroke:#181818;stroke-width:0.5;" width="123" x="274" y="20.5"/><rect fill="#F1F1F1" height="10" style="stroke:#181818;stroke-width:0.5;" width="15" x="377" y="25.5"/><rect fill="#F1F1F1" height="2" style="stroke:#181818;stroke-width:0.5;" width="4" x="375" y="27.5"/><rect fill="#F1F1F1" height="2" style="stroke:#181818;stroke-width:0.5;" width="4" x="375" y="31.5"/><text fill="#000000" font-family="sans-serif" font-size="14" lengthAdjust="spacing" textLength="35" x="310" y="50">Ditto</text></g><!--link User to BaSyx--><g id="link_User_BaSyx"><path d="M37.46,43.5 C48.99,43.5 60.52,43.5 72.05,43.5 " fill="none" id="User-BaSyx" style="stroke:#181818;stroke-width:1.0;"/></g><!--link BaSyx to Ditto--><g id="link_BaSyx_Ditto"><path d="M238.82,43.5 C250.4,43.5 261.98,43.5 273.56,43.5 " fill="none" id="BaSyx-Ditto" style="stroke:#181818;stroke-width:1.0;"/></g><!--link Ditto to Device--><g id="link_Ditto_Device"><path d="M397.32,43.5 C408.94,43.5 420.55,43.5 432.17,43.5 " fill="none" id="Ditto-Device" style="stroke:#181818;stroke-width:1.0;"/></g><!--SRC=[IqmkoIzI22rEBU9A13DTKiioarEvG28AkWhHZex12fvvQKM9nIL5fSabfKMfiLpO145gFVD359mIaxDJyrA0Yf1vG5c8kG00]--></g></svg>