<?xml version="1.0" encoding="us-ascii" standalone="no"?><svg xmlns="http://www.w3.org/2000/svg" xmlns:xlink="http://www.w3.org/1999/xlink" contentStyleType="text/css" height="429px" preserveAspectRatio="none" style="width:697px;height:429px;background:#FFFFFF;" version="1.1" viewBox="0 0 697 429" width="697px" zoomAndPan="magnify"><defs/><g><line style="stroke:#181818;stroke-width:0.5;stroke-dasharray:5.0,5.0;" x1="30" x2="30" y1="81.4883" y2="348.9727"/><line style="stroke:#181818;stroke-width:0.5;stroke-dasharray:5.0,5.0;" x1="169.5" x2="169.5" y1="81.4883" y2="348.9727"/><line style="stroke:#181818;stroke-width:0.5;stroke-dasharray:5.0,5.0;" x1="285" x2="285" y1="81.4883" y2="348.9727"/><line style="stroke:#181818;stroke-width:0.5;stroke-dasharray:5.0,5.0;" x1="480.5" x2="480.5" y1="81.4883" y2="348.9727"/><line style="stroke:#181818;stroke-width:0.5;stroke-dasharray:5.0,5.0;" x1="676.5" x2="676.5" y1="81.4883" y2="348.9727"/><text fill="#000000" font-family="sans-serif" font-size="14" lengthAdjust="spacing" textLength="44" x="5" y="78.5352">Device</text><ellipse cx="30" cy="13.5" fill="#E2E2F0" rx="8" ry="8" style="stroke:#181818;stroke-width:0.5;"/><path d="M30,21.5 L30,48.5 M17,29.5 L43,29.5 M30,48.5 L17,63.5 M30,48.5 L43,63.5 " fill="none" style="stroke:#181818;stroke-width:0.5;"/><text fill="#000000" font-family="sans-serif" font-size="14" lengthAdjust="spacing" textLength="44" x="5" y="361.5078">Device</text><ellipse cx="30" cy="372.9609" fill="#E2E2F0" rx="8" ry="8" style="stroke:#181818;stroke-width:0.5;"/><path d="M30,380.9609 L30,407.9609 M17,388.9609 L43,388.9609 M30,407.9609 L17,422.9609 M30,407.9609 L43,422.9609 " fill="none" style="stroke:#181818;stroke-width:0.5;"/><rect fill="#E2E2F0" height="30.4883" rx="2.5" ry="2.5" style="stroke:#181818;stroke-width:0.5;" width="97" x="121.5" y="50"/><text fill="#000000" font-family="sans-serif" font-size="14" lengthAdjust="spacing" textLength="83" x="128.5" y="70.5352">IoT Backend</text><rect fill="#E2E2F0" height="30.4883" rx="2.5" ry="2.5" style="stroke:#181818;stroke-width:0.5;" width="97" x="121.5" y="347.9727"/><text fill="#000000" font-family="sans-serif" font-size="14" lengthAdjust="spacing" textLength="83" x="128.5" y="368.5078">IoT Backend</text><rect fill="#E2E2F0" height="30.4883" rx="2.5" ry="2.5" style="stroke:#181818;stroke-width:0.5;" width="58" x="256" y="50"/><text fill="#000000" font-family="sans-serif" font-size="14" lengthAdjust="spacing" textLength="44" x="263" y="70.5352">Bridge</text><rect fill="#E2E2F0" height="30.4883" rx="2.5" ry="2.5" style="stroke:#181818;stroke-width:0.5;" width="58" x="256" y="347.9727"/><text fill="#000000" font-family="sans-serif" font-size="14" lengthAdjust="spacing" textLength="44" x="263" y="368.5078">Bridge</text><rect fill="#E2E2F0" height="30.4883" rx="2.5" ry="2.5" style="stroke:#181818;stroke-width:0.5;" width="81" x="440.5" y="50"/><text fill="#000000" font-family="sans-serif" font-size="14" lengthAdjust="spacing" textLength="67" x="447.5" y="70.5352">SM Server</text><rect fill="#E2E2F0" height="30.4883" rx="2.5" ry="2.5" style="stroke:#181818;stroke-width:0.5;" width="81" x="440.5" y="347.9727"/><text fill="#000000" font-family="sans-serif" font-size="14" lengthAdjust="spacing" textLength="67" x="447.5" y="368.5078">SM Server</text><text fill="#000000" font-family="sans-serif" font-size="14" lengthAdjust="spacing" textLength="31" x="658.5" y="78.5352">User</text><ellipse cx="677" cy="13.5" fill="#E2E2F0" rx="8" ry="8" style="stroke:#181818;stroke-width:0.5;"/><path d="M677,21.5 L677,48.5 M664,29.5 L690,29.5 M677,48.5 L664,63.5 M677,48.5 L690,63.5 " fill="none" style="stroke:#181818;stroke-width:0.5;"/><text fill="#000000" font-family="sans-serif" font-size="14" lengthAdjust="spacing" textLength="31" x="658.5" y="361.5078">User</text><ellipse cx="677" cy="372.9609" fill="#E2E2F0" rx="8" ry="8" style="stroke:#181818;stroke-width:0.5;"/><path d="M677,380.9609 L677,407.9609 M664,388.9609 L690,388.9609 M677,407.9609 L664,422.9609 M677,407.9609 L690,422.9609 " fill="none" style="stroke:#181818;stroke-width:0.5;"/><polygon fill="#181818" points="158,108.7988,168,112.7988,158,116.7988,162,112.7988" style="stroke:#181818;stroke-width:1.0;"/><line style="stroke:#181818;stroke-width:1.0;" x1="30" x2="164" y1="112.7988" y2="112.7988"/><text fill="#000000" font-family="sans-serif" font-size="13" lengthAdjust="spacing" textLength="116" x="37" y="108.0566">"Publish new data"</text><polygon fill="#181818" points="492,138.1094,482,142.1094,492,146.1094,488,142.1094" style="stroke:#181818;stroke-width:1.0;"/><line style="stroke:#181818;stroke-width:1.0;" x1="486" x2="676" y1="142.1094" y2="142.1094"/><text fill="#000000" font-family="sans-serif" font-size="13" lengthAdjust="spacing" textLength="91" x="498" y="137.3672">"Request data"</text><polygon fill="#181818" points="296,167.4199,286,171.4199,296,175.4199,292,171.4199" style="stroke:#181818;stroke-width:1.0;"/><line style="stroke:#181818;stroke-width:1.0;" x1="290" x2="480" y1="171.4199" y2="171.4199"/><text fill="#000000" font-family="sans-serif" font-size="13" lengthAdjust="spacing" textLength="119" x="302" y="166.6777">"Delegate Request"</text><polygon fill="#181818" points="181,196.7305,171,200.7305,181,204.7305,177,200.7305" style="stroke:#181818;stroke-width:1.0;"/><line style="stroke:#181818;stroke-width:1.0;" x1="175" x2="284" y1="200.7305" y2="200.7305"/><text fill="#000000" font-family="sans-serif" font-size="13" lengthAdjust="spacing" textLength="91" x="187" y="195.9883">"Request data"</text><polygon fill="#181818" points="273,226.041,283,230.041,273,234.041,277,230.041" style="stroke:#181818;stroke-width:1.0;"/><line style="stroke:#181818;stroke-width:1.0;" x1="170" x2="279" y1="230.041" y2="230.041"/><text fill="#000000" font-family="sans-serif" font-size="13" lengthAdjust="spacing" textLength="82" x="177" y="225.2988">"Return data"</text><line style="stroke:#181818;stroke-width:1.0;" x1="285" x2="327" y1="259.3516" y2="259.3516"/><line style="stroke:#181818;stroke-width:1.0;" x1="327" x2="327" y1="259.3516" y2="272.3516"/><line style="stroke:#181818;stroke-width:1.0;" x1="286" x2="327" y1="272.3516" y2="272.3516"/><polygon fill="#181818" points="296,268.3516,286,272.3516,296,276.3516,292,272.3516" style="stroke:#181818;stroke-width:1.0;"/><text fill="#000000" font-family="sans-serif" font-size="13" lengthAdjust="spacing" textLength="152" x="292" y="254.6094">"Transform data to AAS"</text><polygon fill="#181818" points="469,297.6621,479,301.6621,469,305.6621,473,301.6621" style="stroke:#181818;stroke-width:1.0;"/><line style="stroke:#181818;stroke-width:1.0;" x1="285" x2="475" y1="301.6621" y2="301.6621"/><text fill="#000000" font-family="sans-serif" font-size="13" lengthAdjust="spacing" textLength="172" x="292" y="296.9199">"Return AAS-conform data"</text><polygon fill="#181818" points="665,326.9727,675,330.9727,665,334.9727,669,330.9727" style="stroke:#181818;stroke-width:1.0;"/><line style="stroke:#181818;stroke-width:1.0;" x1="481" x2="671" y1="330.9727" y2="330.9727"/><text fill="#000000" font-family="sans-serif" font-size="13" lengthAdjust="spacing" textLength="172" x="488" y="326.2305">"Return AAS-conform data"</text><!--SRC=[VP113e8m44Ntd6BIFHTWOG9nuyB4W1vWB2CsOeljWDSN2WXMuxBvxx_s5oKR2s9BdP8aeWOjAwaQr0nYPuwGeRoHBeCaiwgiGhpOGq6s8oiY7AqdDnoYsGxnvbEQW3YqvrgvAsXwGecC8XfRdbsCFPdJeoN7CxLa7frUb0nJQggG2QP2pqxXh_i3wpeDl3bnQ_KChfKBSxIetSNOkyU03QHf4T31A2_jgLWQ_Mv-x_EVygVm0W00]--></g></svg>